<svg xmlns="http://www.w3.org/2000/svg" viewBox="0 0 281 100"><g transform="translate(-9.4,10) scale(0.85)">
  <rect x="28" y="14" width="15" height="72" rx="7" fill="#F3EEE8"/>
  <path d="M41 50 L68 18" stroke="#F3EEE8" stroke-width="15" stroke-linecap="round" fill="none"/>
  <path d="M41 50 L72 86" stroke="#F3EEE8" stroke-width="15" stroke-linecap="round" fill="none"/>
  <circle cx="71" cy="14" r="3.2" fill="#A12E44" opacity="0.85"/>
  <circle cx="80" cy="8" r="6.5" fill="#A12E44"/></g><g transform="translate(78,69.5) scale(0.0263671875,-0.0263671875)"><path d="M430 297V714H480L800 1118H1197L728 545H636ZM115 0V1490H464V0ZM810 0 512 467 742 715 1213 0Z" transform="translate(0,0)" fill="#F3EEE8"/><path d="M115 0V1118H464V0ZM289 1249Q215 1249 162.0 1298.5Q109 1348 109 1417Q109 1487 162.0 1536.0Q215 1585 289 1585Q364 1585 417.0 1536.5Q470 1488 470 1417Q470 1347 417.0 1298.0Q364 1249 289 1249Z" transform="translate(1214,0)" fill="#F3EEE8"/><path d="M634 -21Q459 -21 333.0 51.5Q207 124 139.5 253.5Q72 383 72 555Q72 728 139.5 857.5Q207 987 333.0 1059.5Q459 1132 634 1132Q741 1132 830.0 1104.0Q919 1076 986.0 1024.5Q1053 973 1094.5 899.5Q1136 826 1149 735L827 681Q819 725 802.5 759.0Q786 793 762.5 817.0Q739 841 707.5 853.0Q676 865 638 865Q571 865 524.0 828.5Q477 792 452.5 722.5Q428 653 428 557Q428 461 452.5 391.0Q477 321 524.0 283.5Q571 246 638 246Q677 246 708.0 258.5Q739 271 763.5 295.5Q788 320 804.5 355.5Q821 391 828 436L1150 384Q1137 290 1095.5 215.5Q1054 141 987.0 88.0Q920 35 830.5 7.0Q741 -21 634 -21Z" transform="translate(1794,0)" fill="#F3EEE8"/><path d="M430 297V714H480L800 1118H1197L728 545H636ZM115 0V1490H464V0ZM810 0 512 467 742 715 1213 0Z" transform="translate(3013,0)" fill="#F3EEE8"/><path d="M634 -21Q459 -21 333.0 51.5Q207 124 139.5 253.5Q72 383 72 555Q72 728 139.5 857.5Q207 987 333.0 1059.5Q459 1132 634 1132Q809 1132 935.0 1059.5Q1061 987 1128.0 857.5Q1195 728 1195 555Q1195 383 1128.0 253.5Q1061 124 935.0 51.5Q809 -21 634 -21ZM634 246Q701 246 747.0 285.0Q793 324 816.5 394.0Q840 464 840 557Q840 650 816.5 719.5Q793 789 747.0 827.0Q701 865 634 865Q567 865 521.0 827.0Q475 789 451.5 719.5Q428 650 428 557Q428 464 451.5 394.0Q475 324 521.0 285.0Q567 246 634 246Z" transform="translate(4227,0)" fill="#F3EEE8"/><path d="M779 1118V859H20V1118ZM208 0V1178Q208 1306 256.0 1391.0Q304 1476 390.0 1518.0Q476 1560 588 1560Q662 1560 727.5 1548.5Q793 1537 823 1528L767 1273Q747 1278 720.0 1282.5Q693 1287 666 1287Q604 1287 579.5 1258.5Q555 1230 555 1181V0Z" transform="translate(5495,0)" fill="#F3EEE8"/><path d="M779 1118V859H20V1118ZM208 0V1178Q208 1306 256.0 1391.0Q304 1476 390.0 1518.0Q476 1560 588 1560Q662 1560 727.5 1548.5Q793 1537 823 1528L767 1273Q747 1278 720.0 1282.5Q693 1287 666 1287Q604 1287 579.5 1258.5Q555 1230 555 1181V0Z" transform="translate(6334,0)" fill="#F3EEE8"/></g></svg>